<?xml version="1.0" encoding="utf-8"?>
<!-- Generator: Adobe Illustrator 25.2.1, SVG Export Plug-In . SVG Version: 6.00 Build 0)  -->
<svg version="1.2" baseProfile="tiny" id="Layer_1" xmlns="http://www.w3.org/2000/svg" xmlns:xlink="http://www.w3.org/1999/xlink"
	 x="0px" y="0px" viewBox="0 0 46 46" overflow="visible" xml:space="preserve">
<g id="Path_108">
	<path fill="#D3E5DE" d="M16.33,45.33C16.33,45.33,16.33,45.33,16.33,45.33c-3.12,0-6.05-1.21-8.25-3.42
		c-2.2-2.2-3.42-5.13-3.42-8.25C4.67,27.23,9.9,22,16.33,22c0,0,0,0,0,0c0.55,0,1,0.45,1,1s-0.45,1-1,1l0,0
		c-5.33,0-9.67,4.34-9.67,9.67c0,2.58,1,5.01,2.83,6.84c1.83,1.83,4.25,2.83,6.83,2.83c0,0,0,0,0,0c2.58,0,5.01-1,6.83-2.83
		c1.83-1.83,2.83-4.25,2.83-6.84v-32c0-0.55,0.45-1,1-1s1,0.45,1,1C28,8.47,33.53,14,40.33,14c0.55,0,1,0.45,1,1s-0.45,1-1,1
		C35.09,16,30.5,13.17,28,8.96v24.7c0,3.12-1.21,6.05-3.42,8.25C22.38,44.12,19.45,45.33,16.33,45.33z"/>
</g>
</svg>
