<?xml version="1.0" encoding="utf-8"?>
<!-- Generator: Adobe Illustrator 25.2.1, SVG Export Plug-In . SVG Version: 6.00 Build 0)  -->
<svg version="1.2" baseProfile="tiny" id="Layer_1" xmlns="http://www.w3.org/2000/svg" xmlns:xlink="http://www.w3.org/1999/xlink"
	 x="0px" y="0px" viewBox="0 0 46 46" overflow="visible" xml:space="preserve">
<g id="Rectangle_179">
	<path fill="#D3E5DE" d="M41.15,41.09H4.85c-2.5,0-4.54-2.04-4.54-4.54V9.32c0-2.5,2.04-4.54,4.54-4.54h36.3
		c2.5,0,4.54,2.04,4.54,4.54v27.23C45.69,39.05,43.65,41.09,41.15,41.09z M4.85,6.6c-1.5,0-2.72,1.22-2.72,2.72v27.23
		c0,1.5,1.22,2.72,2.72,2.72h36.3c1.5,0,2.72-1.22,2.72-2.72V9.32c0-1.5-1.22-2.72-2.72-2.72H4.85z"/>
</g>
<g id="Path_111">
	<path fill="#D3E5DE" d="M18.16,31.68c-0.15,0-0.31-0.04-0.45-0.12c-0.28-0.16-0.46-0.46-0.46-0.79V16.25
		c0-0.33,0.18-0.63,0.46-0.79c0.28-0.16,0.63-0.16,0.91,0.01l12.1,7.26c0.27,0.16,0.44,0.46,0.44,0.78s-0.17,0.61-0.44,0.78
		l-12.1,7.26C18.48,31.64,18.32,31.68,18.16,31.68z M19.07,17.85v11.32l9.43-5.66L19.07,17.85z"/>
</g>
</svg>
