<?xml version="1.0" encoding="utf-8"?>
<!-- Generator: Adobe Illustrator 25.2.1, SVG Export Plug-In . SVG Version: 6.00 Build 0)  -->
<svg version="1.2" baseProfile="tiny" id="Layer_1" xmlns="http://www.w3.org/2000/svg" xmlns:xlink="http://www.w3.org/1999/xlink"
	 x="0px" y="0px" viewBox="0 0 46 46" overflow="visible" xml:space="preserve">
<g id="Rectangle_178">
	<path fill="#D3E5DE" d="M41,46H5c-2.76,0-5-2.24-5-5V5c0-2.76,2.24-5,5-5h36c2.76,0,5,2.24,5,5v36C46,43.76,43.76,46,41,46z M5,2
		C3.35,2,2,3.35,2,5v36c0,1.65,1.35,3,3,3h36c1.65,0,3-1.35,3-3V5c0-1.65-1.35-3-3-3H5z"/>
</g>
<g id="Ellipse_22">
	<path fill="#D3E5DE" d="M24,33c-4.96,0-9-4.04-9-9s4.04-9,9-9c4.96,0,9,4.04,9,9S28.96,33,24,33z M24,17c-3.86,0-7,3.14-7,7
		s3.14,7,7,7c3.86,0,7-3.14,7-7S27.86,17,24,17z"/>
</g>
<g id="Line_65">
	<path fill="#D3E5DE" d="M35,12c-0.06,0-0.13-0.01-0.19-0.02c-0.07-0.01-0.13-0.03-0.19-0.06c-0.06-0.02-0.12-0.05-0.17-0.09
		c-0.06-0.04-0.11-0.08-0.15-0.12C34.11,11.52,34,11.26,34,11c0-0.27,0.11-0.52,0.3-0.71c0.04-0.04,0.09-0.09,0.15-0.12
		c0.05-0.04,0.11-0.07,0.17-0.09c0.06-0.03,0.12-0.05,0.19-0.06c0.32-0.07,0.67,0.04,0.9,0.27C35.89,10.48,36,10.73,36,11
		c0,0.26-0.11,0.52-0.29,0.71c-0.05,0.04-0.1,0.08-0.15,0.12c-0.06,0.04-0.12,0.07-0.18,0.09c-0.06,0.03-0.12,0.05-0.18,0.06
		C35.13,11.99,35.07,12,35,12z"/>
</g>
</svg>
