<?xml version="1.0" encoding="utf-8"?>
<!-- Generator: Adobe Illustrator 25.2.1, SVG Export Plug-In . SVG Version: 6.00 Build 0)  -->
<svg version="1.2" baseProfile="tiny" id="Layer_1" xmlns="http://www.w3.org/2000/svg" xmlns:xlink="http://www.w3.org/1999/xlink"
	 x="0px" y="0px" viewBox="0 0 46 46" overflow="visible" xml:space="preserve">
<g id="Path_113">
	<path fill="#D3E5DE" d="M26.66,45.86H16.9c-0.5,0-0.91-0.41-0.91-0.91V28.79h-6.4c-0.5,0-0.91-0.41-0.91-0.91v-9.75v0v0
		c0-0.5,0.41-0.91,0.91-0.91h6.4v-3.96c0-3.5,1.36-6.79,3.84-9.27c2.48-2.47,5.77-3.84,9.27-3.84c0,0,0,0,0,0h7.32
		c0.51,0,0.91,0.41,0.91,0.91v9.75c0,0.5-0.41,0.91-0.91,0.91H29.1c-0.84,0-1.52,0.68-1.52,1.52v3.96h8.84
		c0.28,0,0.55,0.13,0.72,0.35c0.17,0.22,0.23,0.51,0.17,0.78l-2.44,9.75c-0.1,0.41-0.47,0.69-0.89,0.69h-6.4v16.15
		C27.57,45.45,27.16,45.86,26.66,45.86z M17.82,44.03h7.93V27.88c0-0.51,0.41-0.91,0.91-0.91h6.6l1.98-7.93h-8.58
		c-0.51,0-0.91-0.41-0.91-0.91v-4.88c0-1.85,1.5-3.35,3.35-3.35h6.4V1.97h-6.4c-6.22,0-11.28,5.06-11.28,11.28v4.88
		c0,0.5-0.41,0.91-0.91,0.91h-6.4v7.93h6.4c0.5,0,0.91,0.41,0.91,0.91V44.03z"/>
</g>
</svg>
