<svg id="Lag_2" data-name="Lag 2" xmlns="http://www.w3.org/2000/svg" viewBox="0 0 603.48 603.48"><defs><style>.cls-1{fill:none;stroke:#000;stroke-linecap:round;stroke-linejoin:round;stroke-width:11px;}.cls-2{fill:#cfe6de;}.cls-3{fill:#f1c075;}.cls-4{opacity:0.5;}.cls-5{fill:#ebebeb;}</style></defs><path class="cls-1" d="M418.29,37.82" transform="translate(-3.54)"/><rect class="cls-2" width="603.48" height="603.48" rx="78.61"/><path class="cls-3" d="M317.7,329.35H101.58a25,25,0,0,1-25-25V208.3a25,25,0,0,1,25-25H317.7A25,25,0,0,1,329,186c5.32,2.69,52,27.49,53.13,69.2.73,26.71-16.74,50.54-51.93,70.82A25,25,0,0,1,317.7,329.35Zm-191.12-50H310.74c15.83-10.07,21.5-18.42,21.4-22.77-.15-6.82-11.2-17-21.07-23.28H126.58Z" transform="translate(-3.54)"/><path class="cls-3" d="M317.3,425.41H101.17a25,25,0,0,1-25-25V304.35a25,25,0,0,1,25-25H317.3a25,25,0,0,1,11.28,2.7c5.32,2.69,52,27.49,53.14,69.19.73,26.71-16.75,50.54-51.94,70.83A25,25,0,0,1,317.3,425.41Zm-191.13-50H310.33c15.86-10.1,21.53-18.45,21.41-22.8-.19-6.85-11.32-17.15-21-23.26H126.17Z" transform="translate(-3.54)"/><path class="cls-3" d="M473.21,427H257.09a25,25,0,0,1-25-25V305.92a25,25,0,0,1,25-25H473.21a25,25,0,0,1,11.29,2.69c5.31,2.69,52,27.5,53.13,69.2.73,26.71-16.74,50.54-51.93,70.82A25,25,0,0,1,473.21,427ZM282.09,377H466.25c15.86-10.1,21.52-18.45,21.4-22.8-.19-6.86-11.32-17.15-21-23.26H282.09Z" transform="translate(-3.54)"/><path class="cls-3" d="M472.8,523H256.68a25,25,0,0,1-25-25V402a25,25,0,0,1,25-25H472.8a25,25,0,0,1,11.29,2.69c5.32,2.69,52,27.49,53.14,69.2.73,26.7-16.75,50.53-51.94,70.82A25,25,0,0,1,472.8,523ZM281.68,473H465.84c15.86-10.1,21.52-18.45,21.4-22.8-.18-6.85-11.32-17.15-21-23.25H281.68Z" transform="translate(-3.54)"/><g class="cls-4"><path class="cls-3" d="M245.13,520a5.52,5.52,0,0,1-2.95-.86L91.23,423.3A5.5,5.5,0,0,1,97.12,414l151,95.83a5.5,5.5,0,0,1-3,10.14Z" transform="translate(-3.54)"/></g><g class="cls-4"><path class="cls-3" d="M501.59,308.1a5.4,5.4,0,0,1-2.87-.82l-161.36-99a5.5,5.5,0,1,1,5.76-9.38l161.35,99a5.5,5.5,0,0,1-2.88,10.19Z" transform="translate(-3.54)"/></g><g class="cls-4"><path class="cls-3" d="M261.08,309.42a5.4,5.4,0,0,1-2.56-.64L95,222.27a5.5,5.5,0,1,1,5.14-9.72l163.5,86.51a5.5,5.5,0,0,1-2.58,10.36Z" transform="translate(-3.54)"/></g><g class="cls-4"><path class="cls-3" d="M266,405.42a5.52,5.52,0,0,1-2.42-.56L94.16,321.42A5.5,5.5,0,0,1,99,311.55L268.45,395A5.5,5.5,0,0,1,266,405.42Z" transform="translate(-3.54)"/></g><g class="cls-4"><path class="cls-3" d="M492.67,503.53a5.48,5.48,0,0,1-2.92-.84L334.24,405.07a5.5,5.5,0,0,1,5.85-9.32L495.6,493.37a5.5,5.5,0,0,1-2.93,10.16Z" transform="translate(-3.54)"/></g><g class="cls-4"><path class="cls-3" d="M479.69,407.48a5.46,5.46,0,0,1-2.94-.86L319,306.5a5.5,5.5,0,0,1,5.9-9.29L482.64,397.33a5.5,5.5,0,0,1-2.95,10.15Z" transform="translate(-3.54)"/></g><line class="cls-3" x1="247.79" y1="156.21" x2="364.55" y2="63.04"/><path class="cls-5" d="M251.33,163.71a7.5,7.5,0,0,1-4.68-13.36L363.41,57.18a7.5,7.5,0,1,1,9.35,11.73L256,162.07A7.5,7.5,0,0,1,251.33,163.71Z" transform="translate(-3.54)"/><polyline class="cls-3" points="481.84 156.21 365.09 63.05 247.79 156.21 481.84 156.21"/><path class="cls-5" d="M485.38,163.71h-234a7.5,7.5,0,0,1-4.66-13.37L364,57.17a7.5,7.5,0,0,1,9.34,0l116.76,93.17a7.5,7.5,0,0,1-4.68,13.36Zm-212.55-15H464L368.61,72.63Z" transform="translate(-3.54)"/><path class="cls-5" d="M271.69,164h-.11L250,163.54l-146.16.4h0a6.61,6.61,0,0,1-3.35-11.26L225.27,52.12h0a5.45,5.45,0,0,1,3.65-1.2c23.17.74,46.84,1.28,69.73,1.8s46.64,1.06,69.87,1.81a5.49,5.49,0,0,1,5.32,5.5v.18a5.5,5.5,0,0,1-5.67,5.32c-35.71-1.14-181.14,61.79-238.6,87.35L250,152.54h.12l21.69.43a5.5,5.5,0,0,1-.11,11ZM149,127.73l-12.4,10C183.44,117,266.72,81.39,322.12,64.26l-23.71-.55c-22.25-.51-45.24-1-67.83-1.74Z" transform="translate(-3.54)"/><polygon class="cls-3" points="241.29 152.56 349.28 64.75 223.96 60.74 110.76 151.78 241.29 152.56"/></svg>